<svg width="24" height="24" viewBox="0 0 24 24" fill="none" xmlns="http://www.w3.org/2000/svg">
<path d="M7.00872 18H17.1378C18.3162 18 19 17.2797 19 15.9035V9.28617C19 7.90997 18.3101 7.18971 16.9913 7.18971H11.3314C10.8918 7.18971 10.6293 7.08682 10.2874 6.791L9.94549 6.49518C9.51199 6.12219 9.19451 6 8.55342 6H6.82556C5.67771 6 5 6.7074 5 8.06431V15.9035C5 17.2862 5.68993 18 7.00872 18ZM6.215 8.17363C6.215 7.58842 6.52638 7.27974 7.06978 7.27974H8.22983C8.66332 7.27974 8.91976 7.38907 9.26777 7.68489L9.60968 7.98714C10.0371 8.34727 10.3668 8.47588 11.0079 8.47588H16.9119C17.4736 8.47588 17.785 8.78457 17.785 9.40193V9.78135H6.215V8.17363ZM7.08809 16.7203C6.52638 16.7203 6.215 16.4116 6.215 15.7878V10.9068H17.785V15.7942C17.785 16.4116 17.4736 16.7203 16.9119 16.7203H7.08809Z" fill="#43484E"/>
</svg>
